HIERARCHY
ROOT Hips
{
  OFFSET 55.0542 96.745 60.0693
  CHANNELS 6 Xposition Yposition Zposition Zrotation Xrotation Yrotation
  JOINT spine
  {
    OFFSET 0 8.13249 0.467659
    CHANNELS 3 Zrotation Xrotation Yrotation
    JOINT spine1
    {
      OFFSET 0 10.3498 0
      CHANNELS 3 Zrotation Xrotation Yrotation
      JOINT spine2
      {
        OFFSET 0 9.91699 0
        CHANNELS 3 Zrotation Xrotation Yrotation
        JOINT Neck
        {
          OFFSET 0 25.461 1.2139
          CHANNELS 3 Zrotation Xrotation Yrotation
          JOINT Head
          {
            OFFSET 0 7.69245 0
            CHANNELS 3 Zrotation Xrotation Yrotation
            End Site
            {
              OFFSET 0 18.62 -6.14063
            }
          }
        }
        JOINT RightShoulder
        {
          OFFSET -4.17575 10.7096 -0.581445
          CHANNELS 3 Zrotation Xrotation Yrotation
          JOINT RightArm
          {
            OFFSET 0 14.0466 0
            CHANNELS 3 Zrotation Xrotation Yrotation
            JOINT RightArmRoll
            {
              OFFSET 0 7.09098 0
              CHANNELS 3 Zrotation Xrotation Yrotation
              JOINT RightForeArm
              {
                OFFSET 0 20.6535 0
                CHANNELS 3 Zrotation Xrotation Yrotation
                JOINT RightForeArmRoll
                {
                  OFFSET 0 7.95718 0
                  CHANNELS 3 Zrotation Xrotation Yrotation
                  JOINT RightHand
                  {
                    OFFSET 0 15.9683 0
                    CHANNELS 3 Zrotation Xrotation Yrotation
                    End Site
                    {
                      OFFSET 0 0 0
                    }
                  }
                }
              }
            }
          }
        }
        JOINT LeftShoulder
        {
          OFFSET 4.17575 10.7096 -0.581445
          CHANNELS 3 Zrotation Xrotation Yrotation
          JOINT LeftArm
          {
            OFFSET 0 14.0466 0
            CHANNELS 3 Zrotation Xrotation Yrotation
            JOINT LeftArmRoll
            {
              OFFSET 0 7.09098 0
              CHANNELS 3 Zrotation Xrotation Yrotation
              JOINT LeftForeArm
              {
                OFFSET 0 20.6535 0
                CHANNELS 3 Zrotation Xrotation Yrotation
                JOINT LeftForeArmRoll
                {
                  OFFSET 0 7.95718 0
                  CHANNELS 3 Zrotation Xrotation Yrotation
                  JOINT LeftHand
                  {
                    OFFSET 0 15.9683 0
                    CHANNELS 3 Zrotation Xrotation Yrotation
                    End Site
                    {
                      OFFSET 0 0 0
                    }
                  }
                }
              }
            }
          }
        }
      }
    }
  }
  JOINT RightUpLeg
  {
    OFFSET -7.20834 -1.32182 -1.10884
    CHANNELS 3 Zrotation Xrotation Yrotation
    JOINT RightUpLegRoll
    {
      OFFSET 0 18.7238 0
      CHANNELS 3 Zrotation Xrotation Yrotation
      JOINT RightLeg
      {
        OFFSET 0 -23.1866 0
        CHANNELS 3 Zrotation Xrotation Yrotation
        JOINT RightLegRoll
        {
          OFFSET 0 23.2624 0
          CHANNELS 3 Zrotation Xrotation Yrotation
          JOINT RightFoot
          {
            OFFSET 0 19.3621 0
            CHANNELS 3 Zrotation Xrotation Yrotation
            JOINT RightToeBase
            {
              OFFSET 0 16.1857 0
              CHANNELS 3 Zrotation Xrotation Yrotation
              End Site
              {
                OFFSET 0.00686052 7.83863 -0.903522
              }
            }
          }
        }
      }
    }
  }
  JOINT LeftUpLeg
  {
    OFFSET 7.20834 -1.32182 -1.10884
    CHANNELS 3 Zrotation Xrotation Yrotation
    JOINT LeftUpLegRoll
    {
      OFFSET 0 18.7239 0
      CHANNELS 3 Zrotation Xrotation Yrotation
      JOINT LeftLeg
      {
        OFFSET 0 23.1865 0
        CHANNELS 3 Zrotation Xrotation Yrotation
        JOINT LeftLegRoll
        {
          OFFSET 0 23.4775 0
          CHANNELS 3 Zrotation Xrotation Yrotation
          JOINT LeftFoot
          {
            OFFSET 0 19.147 0
            CHANNELS 3 Zrotation Xrotation Yrotation
            JOINT LeftToeBase
            {
              OFFSET 0 16.1857 0
              CHANNELS 3 Zrotation Xrotation Yrotation
              End Site
              {
                OFFSET -0.0307459 7.83862 -0.903522
              }
            }
          }
        }
      }
    }
  }
}
MOTION
Frames: 13
Frame Time: 0.00208333
54.6392 56.6191 14.3439 -2.49743 -2.0398 -0.985059 0.627714 0.451514 -0.326468 1.24909 4.90137 -0.728904 1.25996 6.54618 -0.750887 -1.15579 -3.21133 -2.17751 3.27905 -1.47917 -1.96799 57.6354 -9.09387 -5.63406 127.176 38.779 -19.6358 -2.64703e-005 1.4433e-006 -4.49477e-006 16.5259 31.0481 -6.09465 -1.57519e-006 -8.2476e-007 -3 8.02891 -4.95144 0.69771 -61.9648 -9.31096 5.81728 -118.649 38.7324 20.0305 -2.05986e-006 4.06688e-007 3.82021e-006 -11.1684 28.4657 3.41622 -1.93441e-006 -6.68408e-006 3.00606 -8.02897 -4.95157 -0.697733 110.477 75.3156 74.3734 180 1.52563e-005 178.974 158.801 83.2895 -164.107 -4.36432e-006 1.22608e-006 1.79331 -22.1844 66.833 18.5117 8.13649 25.2327 -3.48768 -105.262 75.7341 -76.5384 -1.07169e-005 -4.64205e-006 -1.20347 10.3252 -83.5697 12.0102 2.449e-006 -1.62769e-006 -2.17627 18.0369 62.001 -15.231 -8.13668 25.2452 3.47393 
54.6404 56.6166 14.3444 -2.49724 -2.03924 -0.986358 0.627395 0.451886 -0.326489 1.24906 4.90189 -0.730128 1.25971 6.54669 -0.752088 -1.15374 -3.19962 -2.17766 3.27851 -1.47584 -1.96857 57.637 -9.09204 -5.6329 127.177 38.7781 -19.6387 -2.64703e-005 1.4433e-006 -4.49477e-006 16.527 31.0541 -6.09606 -1.57519e-006 -8.2476e-007 -3 8.02891 -4.95144 0.69771 -61.9612 -9.31318 5.81919 -118.651 38.7319 20.0233 -2.05986e-006 4.06688e-007 3.82021e-006 -11.1669 28.4579 3.41514 -1.93441e-006 -6.68408e-006 3.00606 -8.02897 -4.95157 -0.697733 110.477 75.3168 74.3759 180 1.52563e-005 178.974 158.794 83.2878 -164.101 -4.36432e-006 1.22608e-006 1.79331 -22.1859 66.8299 18.509 8.13649 25.2327 -3.48768 -105.257 75.734 -76.543 -1.07169e-005 -4.64205e-006 -1.20312 10.3275 -83.5699 12.0122 2.449e-006 -1.62769e-006 -2.17653 18.0357 61.9989 -15.2298 -8.13668 25.2452 3.47393 
54.6389 56.6177 14.3415 -2.49706 -2.03859 -0.987725 0.627054 0.452223 -0.326519 1.24902 4.90232 -0.731426 1.25945 6.54712 -0.753361 -1.15151 -3.18793 -2.17775 3.27782 -1.47263 -1.9691 57.6387 -9.09001 -5.63162 127.177 38.7773 -19.6415 -2.64703e-005 1.4433e-006 -4.49477e-006 16.5281 31.0599 -6.09743 -1.57519e-006 -8.2476e-007 -3 8.02891 -4.95144 0.69771 -61.9574 -9.31549 5.82118 -118.652 38.7313 20.0158 -2.05986e-006 4.06688e-007 3.82021e-006 -11.1653 28.4499 3.41401 -1.93441e-006 -6.68408e-006 3.00606 -8.02897 -4.95157 -0.697733 110.478 75.3182 74.3786 180 1.52563e-005 178.974 158.785 83.286 -164.093 -4.36432e-006 1.22608e-006 1.79331 -22.1876 66.8267 18.5062 8.13649 25.2327 -3.48768 -105.252 75.7339 -76.5481 -1.07169e-005 -4.64205e-006 -1.20276 10.3299 -83.5701 12.0143 2.449e-006 -1.62769e-006 -2.1768 18.0344 61.9967 -15.2285 -8.13668 25.2452 3.47393 
54.6452 56.6063 14.3591 -2.4969 -2.0379 -0.989138 0.626698 0.452536 -0.326555 1.24897 4.90269 -0.732775 1.25916 6.5475 -0.754684 -1.14914 -3.17626 -2.17779 3.27703 -1.46951 -1.96958 57.6406 -9.08784 -5.63025 127.178 38.7765 -19.6442 -2.64703e-005 1.4433e-006 -4.49477e-006 16.5292 31.0655 -6.09878 -1.57519e-006 -8.2476e-007 -3 8.02891 -4.95144 0.69771 -61.9534 -9.31785 5.82322 -118.654 38.7307 20.0081 -2.05986e-006 4.06688e-007 3.82021e-006 -11.1637 28.4418 3.41286 -1.93441e-006 -6.68408e-006 3.00606 -8.02897 -4.95157 -0.697733 110.478 75.3195 74.3817 180 1.52563e-005 178.974 158.776 83.2843 -164.086 -4.36432e-006 1.22608e-006 1.79331 -22.1893 66.8234 18.5033 8.13649 25.2327 -3.48768 -105.246 75.7338 -76.5536 -1.07169e-005 -4.64205e-006 -1.20238 10.3322 -83.5704 12.0163 2.449e-006 -1.62769e-006 -2.17709 18.0332 61.9945 -15.2272 -8.13668 25.2452 3.47393 
54.6445 56.6098 14.354 -2.49674 -2.03718 -0.990579 0.626334 0.452836 -0.326594 1.24892 4.90303 -0.734154 1.25887 6.54784 -0.756035 -1.14669 -3.16461 -2.1778 3.27617 -1.46644 -1.97003 57.6425 -9.0856 -5.62883 127.178 38.7757 -19.6469 -2.64703e-005 1.4433e-006 -4.49477e-006 16.5304 31.0711 -6.10012 -1.57519e-006 -8.2476e-007 -3 8.02891 -4.95144 0.69771 -61.9494 -9.32025 5.82528 -118.656 38.73 20.0003 -2.05986e-006 4.06688e-007 3.82021e-006 -11.162 28.4336 3.41169 -1.93441e-006 -6.68408e-006 3.00606 -8.02897 -4.95157 -0.697733 110.479 75.3209 74.3849 180 1.52563e-005 178.974 158.767 83.2825 -164.078 -4.36432e-006 1.22608e-006 1.79331 -22.1911 66.8201 18.5003 8.13649 25.2327 -3.48768 -105.24 75.7337 -76.5593 -1.07169e-005 -4.64205e-006 -1.202 10.3346 -83.5706 12.0184 2.449e-006 -1.62769e-006 -2.17739 18.032 61.9923 -15.2259 -8.13668 25.2452 3.47393 
54.6385 56.6187 14.3433 -2.49659 -2.03645 -0.992027 0.625967 0.453132 -0.326634 1.24887 4.90336 -0.73554 1.25857 6.54817 -0.757394 -1.14423 -3.15295 -2.17781 3.2753 -1.46338 -1.97048 57.6444 -9.08333 -5.6274 127.178 38.775 -19.6496 -2.64703e-005 1.4433e-006 -4.49477e-006 16.5315 31.0767 -6.10145 -1.57519e-006 -8.2476e-007 -3 8.02891 -4.95144 0.69771 -61.9454 -9.32266 5.82735 -118.658 38.7292 19.9926 -2.05986e-006 4.06688e-007 3.82021e-006 -11.1604 28.4253 3.41051 -1.93441e-006 -6.68408e-006 3.00606 -8.02897 -4.95157 -0.697733 110.479 75.3223 74.3881 180 1.52563e-005 178.974 158.758 83.2807 -164.07 -4.36432e-006 1.22608e-006 1.79331 -22.1928 66.8168 18.4974 8.13649 25.2327 -3.48768 -105.234 75.7335 -76.5651 -1.07169e-005 -4.64205e-006 -1.20161 10.3369 -83.5709 12.0204 2.449e-006 -1.62769e-006 -2.17769 18.0308 61.99 -15.2246 -8.13668 25.2452 3.47393 
54.6379 56.6101 14.3461 -2.49643 -2.03573 -0.993461 0.625604 0.453435 -0.326673 1.24883 4.90371 -0.736912 1.25828 6.54852 -0.758738 -1.1418 -3.14129 -2.17783 3.27446 -1.4603 -1.97094 57.6462 -9.08111 -5.62599 127.179 38.7742 -19.6523 -2.64703e-005 1.4433e-006 -4.49477e-006 16.5326 31.0823 -6.10279 -1.57519e-006 -8.2476e-007 -3 8.02891 -4.95144 0.69771 -61.9415 -9.32505 5.82941 -118.659 38.7285 19.9848 -2.05986e-006 4.06688e-007 3.82021e-006 -11.1588 28.4171 3.40935 -1.93441e-006 -6.68408e-006 3.00606 -8.02897 -4.95157 -0.697733 110.479 75.3237 74.3912 180 1.52563e-005 178.974 158.749 83.2789 -164.062 -4.36432e-006 1.22608e-006 1.79331 -22.1946 66.8135 18.4945 8.13649 25.2327 -3.48768 -105.229 75.7334 -76.5708 -1.07169e-005 -4.64205e-006 -1.20123 10.3393 -83.5712 12.0225 2.449e-006 -1.62769e-006 -2.17798 18.0295 61.9878 -15.2232 -8.13668 25.2452 3.47393 
54.6421 56.6094 14.3583 -2.49626 -2.03505 -0.994861 0.625253 0.453755 -0.326707 1.24878 4.9041 -0.738246 1.258 6.54891 -0.760047 -1.13947 -3.12962 -2.17788 3.2737 -1.45715 -1.97143 57.648 -9.07898 -5.62465 127.179 38.7734 -19.6551 -2.64703e-005 1.4433e-006 -4.49477e-006 16.5338 31.088 -6.10414 -1.57519e-006 -8.2476e-007 -3 8.02891 -4.95144 0.69771 -61.9376 -9.3274 5.83143 -118.661 38.7279 19.9772 -2.05986e-006 4.06688e-007 3.82021e-006 -11.1572 28.409 3.40821 -1.93441e-006 -6.68408e-006 3.00606 -8.02897 -4.95157 -0.697733 110.48 75.3251 74.3942 180 1.52563e-005 178.974 158.74 83.2771 -164.055 -4.36432e-006 1.22608e-006 1.79331 -22.1963 66.8102 18.4916 8.13649 25.2327 -3.48768 -105.223 75.7333 -76.5762 -1.07169e-005 -4.64205e-006 -1.20086 10.3417 -83.5715 12.0245 2.449e-006 -1.62769e-006 -2.17827 18.0283 61.9856 -15.2219 -8.13668 25.2452 3.47393 
54.6426 56.6152 14.3554 -2.49608 -2.03443 -0.996208 0.624919 0.454103 -0.326734 1.24874 4.90456 -0.739522 1.25774 6.54936 -0.761298 -1.13729 -3.11792 -2.17799 3.27305 -1.45391 -1.97198 57.6497 -9.07701 -5.6234 127.18 38.7726 -19.6579 -2.64703e-005 1.4433e-006 -4.49477e-006 16.5349 31.0939 -6.10553 -1.57519e-006 -8.2476e-007 -3 8.02891 -4.95144 0.69771 -61.9338 -9.32968 5.83339 -118.663 38.7273 19.9698 -2.05986e-006 4.06688e-007 3.82021e-006 -11.1556 28.4011 3.40709 -1.93441e-006 -6.68408e-006 3.00606 -8.02897 -4.95157 -0.697733 110.48 75.3263 74.3969 180 1.52563e-005 178.974 158.732 83.2754 -164.048 -4.36432e-006 1.22608e-006 1.79331 -22.1979 66.807 18.4888 8.13649 25.2327 -3.48768 -105.218 75.7332 -76.5812 -1.07169e-005 -4.64205e-006 -1.2005 10.344 -83.5717 12.0265 2.449e-006 -1.62769e-006 -2.17853 18.0271 61.9835 -15.2207 -8.13668 25.2452 3.47393 
54.6397 56.6184 14.3404 -2.49588 -2.03389 -0.99748 0.624608 0.454488 -0.326751 1.24872 4.90511 -0.740717 1.2575 6.54991 -0.76247 -1.13532 -3.1062 -2.17817 3.27257 -1.45053 -1.97259 57.6512 -9.07526 -5.6223 127.18 38.7717 -19.6609 -2.64703e-005 1.4433e-006 -4.49477e-006 16.536 31.0999 -6.10695 -1.57519e-006 -8.2476e-007 -3 8.02891 -4.95144 0.69771 -61.9303 -9.33186 5.83528 -118.665 38.7269 19.9627 -2.05986e-006 4.06688e-007 3.82021e-006 -11.1541 28.3934 3.40603 -1.93441e-006 -6.68408e-006 3.00606 -8.02897 -4.95157 -0.697733 110.481 75.3276 74.3992 180 1.52563e-005 178.974 158.725 83.2737 -164.041 -4.36432e-006 1.22608e-006 1.79331 -22.1994 66.804 18.4861 8.13649 25.2327 -3.48768 -105.214 75.7331 -76.5855 -1.07169e-005 -4.64205e-006 -1.20016 10.3463 -83.5719 12.0285 2.449e-006 -1.62769e-006 -2.17878 18.0258 61.9814 -15.2195 -8.13668 25.2452 3.47393 
54.6399 56.6147 14.345 -2.49565 -2.03346 -0.998657 0.624329 0.454921 -0.326756 1.2487 4.90578 -0.74181 1.2573 6.55058 -0.763542 -1.13361 -3.09444 -2.17844 3.2723 -1.44697 -1.97329 57.6525 -9.07379 -5.62137 127.181 38.7708 -19.6639 -2.64703e-005 1.4433e-006 -4.49477e-006 16.5371 31.1063 -6.10843 -1.57519e-006 -8.2476e-007 -3 8.02891 -4.95144 0.69771 -61.9269 -9.33393 5.83707 -118.667 38.7267 19.9559 -2.05986e-006 4.06688e-007 3.82021e-006 -11.1526 28.386 3.40502 -1.93441e-006 -6.68408e-006 3.00606 -8.02897 -4.95157 -0.697733 110.482 75.3287 74.4011 180 1.52563e-005 178.974 158.718 83.2721 -164.035 -4.36432e-006 1.22608e-006 1.79331 -22.2008 66.8011 18.4835 8.13649 25.2327 -3.48768 -105.21 75.7331 -76.589 -1.07169e-005 -4.64205e-006 -1.19984 10.3486 -83.572 12.0305 2.449e-006 -1.62769e-006 -2.179 18.0245 61.9794 -15.2183 -8.13668 25.2452 3.47393 
54.6332 56.6166 14.3276 -2.49539 -2.03315 -0.99972 0.624086 0.455413 -0.326745 1.2487 4.90659 -0.742778 1.25714 6.55139 -0.764492 -1.13222 -3.08263 -2.17883 3.27229 -1.4432 -1.9741 57.6536 -9.07266 -5.62065 127.181 38.7699 -19.6672 -2.64703e-005 1.4433e-006 -4.49477e-006 16.5383 31.113 -6.10996 -1.57519e-006 -8.2476e-007 -3 8.02891 -4.95144 0.69771 -61.9239 -9.33586 5.83873 -118.669 38.7266 19.9495 -2.05986e-006 4.06688e-007 3.82021e-006 -11.1512 28.379 3.40408 -1.93441e-006 -6.68408e-006 3.00606 -8.02897 -4.95157 -0.697733 110.483 75.3297 74.4024 180 1.52563e-005 178.974 158.712 83.2705 -164.03 -4.36432e-006 1.22608e-006 1.79331 -22.2021 66.7983 18.4811 8.13649 25.2327 -3.48768 -105.207 75.7332 -76.5916 -1.07169e-005 -4.64205e-006 -1.19956 10.3508 -83.572 12.0324 2.449e-006 -1.62769e-006 -2.17919 18.0233 61.9776 -15.2173 -8.13668 25.2452 3.47393 
54.635 56.6187 14.3292 -2.49509 -2.03298 -1.00065 0.623887 0.455973 -0.326718 1.24872 4.90756 -0.743598 1.25702 6.55237 -0.765299 -1.13121 -3.07076 -2.17935 3.27257 -1.43919 -1.97504 57.6544 -9.07193 -5.62019 127.182 38.7689 -19.6706 -2.64703e-005 1.4433e-006 -4.49477e-006 16.5394 31.12 -6.11156 -1.57519e-006 -8.2476e-007 -3 8.02891 -4.95144 0.69771 -61.9213 -9.33762 5.84026 -118.671 38.7268 19.9436 -2.05986e-006 4.06688e-007 3.82021e-006 -11.1498 28.3723 3.40322 -1.93441e-006 -6.68408e-006 3.00606 -8.02897 -4.95157 -0.697733 110.485 75.3306 74.4031 180 1.52563e-005 178.974 158.707 83.2691 -164.026 -4.36432e-006 1.22608e-006 1.79331 -22.2032 66.7958 18.4789 8.13649 25.2327 -3.48768 -105.205 75.7334 -76.593 -1.07169e-005 -4.64205e-006 -1.19931 10.353 -83.572 12.0343 2.449e-006 -1.62769e-006 -2.17934 18.0219 61.9759 -15.2163 -8.13668 25.2452 3.47393 
